<?xml version="1.0" encoding="utf-8"?>
<!-- Generator: Adobe Illustrator 23.0.5, SVG Export Plug-In . SVG Version: 6.00 Build 0)  -->
<svg version="1.1" id="Capa_1" xmlns="http://www.w3.org/2000/svg" xmlns:xlink="http://www.w3.org/1999/xlink" x="0px" y="0px"
	 viewBox="0 0 512 512" style="enable-background:new 0 0 512 512," xml:space="preserve">
<style type="text/css">
	.st0{fill:url(#SVGID_1_),}
	.st1{fill:url(#SVGID_2_),}
	.st2{fill:url(#SVGID_3_),}
	.st3{fill:url(#SVGID_4_),}
	.st4{fill:url(#SVGID_5_),}
	.st5{fill:url(#SVGID_6_),}
	.st6{fill:url(#SVGID_7_),}
	.st7{fill:url(#SVGID_8_),}
	.st8{fill:url(#SVGID_9_),}
	.st9{fill:url(#SVGID_10_),}
	.st10{fill:url(#SVGID_11_),}
	.st11{fill:url(#SVGID_12_),}
	.st12{fill:url(#SVGID_13_),}
	.st13{fill:url(#SVGID_14_),}
	.st14{fill:url(#SVGID_15_),}
	.st15{fill:url(#SVGID_16_),}
	.st16{fill:url(#SVGID_17_),}
	.st17{fill:url(#SVGID_18_),}
	.st18{fill:url(#SVGID_19_),}
	.st19{fill:url(#SVGID_20_),}
	.st20{fill:url(#SVGID_21_),}
	.st21{fill:url(#SVGID_22_),}
	.st22{fill:url(#SVGID_23_),}
	.st23{fill:url(#SVGID_24_),}
	.st24{fill:url(#SVGID_25_),}
	.st25{fill:url(#SVGID_26_),}
	.st26{fill:url(#SVGID_27_),}
	.st27{fill:url(#SVGID_28_),}
	.st28{fill:url(#SVGID_29_),}
	.st29{fill:url(#SVGID_30_),}
	.st30{fill:url(#SVGID_31_),}
</style>
<linearGradient id="SVGID_1_" gradientUnits="userSpaceOnUse" x1="194.6638" y1="761.9313" x2="722.8438" y2="1290.1113" gradientTransform="matrix(1.0039 0 0 1.0039 2.9339 -566.5474)">
	<stop  offset="0" style="stop-color:#27254B"/>
	<stop  offset="1" style="stop-color:#FFFFFF"/>
</linearGradient>
<path class="st0" d="M420.7,512H91.3C56.4,512,28,483.7,28,448.8V63.2C28,28.3,56.4,0,91.3,0h329.5C455.6,0,484,28.3,484,63.2v385.5
	C484,483.7,455.6,512,420.7,512z"/>
<linearGradient id="SVGID_2_" gradientUnits="userSpaceOnUse" x1="252.0834" y1="1025.0076" x2="252.0834" y2="1088.6276" gradientTransform="matrix(1.0039 0 0 1.0039 2.9339 -566.5474)">
	<stop  offset="0" style="stop-color:#FFFFFF,stop-opacity:0"/>
	<stop  offset="1" style="stop-color:#FFFFFF"/>
</linearGradient>
<path class="st1" d="M28,421v27.7c0,34.9,28.3,63.2,63.2,63.2h329.5c34.9,0,63.2-28.3,63.2-63.2V421H28z"/>
<linearGradient id="SVGID_3_" gradientUnits="userSpaceOnUse" x1="252.0834" y1="680.8376" x2="252.0834" y2="789.8376" gradientTransform="matrix(1.0039 0 0 1.0039 2.9339 -566.5474)">
	<stop  offset="0" style="stop-color:#14123B"/>
	<stop  offset="0.6311" style="stop-color:#0B0B1E"/>
</linearGradient>
<path class="st2" d="M420.7,0H91.3C56.4,0,28,28.3,28,63.2v126.4H484V63.2C484,28.3,455.6,0,420.7,0z"/>
<linearGradient id="SVGID_4_" gradientUnits="userSpaceOnUse" x1="74.775" y1="89.137" x2="437.223" y2="89.137">
	<stop  offset="0" style="stop-color:#F2CDC0"/>
	<stop  offset="1" style="stop-color:#FFFFFF"/>
</linearGradient>
<path class="st3" d="M411.6,144.8H100.4c-14.2,0-25.7-11.5-25.7-25.7V59.2c0-14.2,11.5-25.7,25.7-25.7h311.1
	c14.2,0,25.7,11.5,25.7,25.7v59.9C437.2,133.3,425.7,144.8,411.6,144.8z"/>
<linearGradient id="SVGID_5_" gradientUnits="userSpaceOnUse" x1="159.7893" y1="847.2759" x2="69.5392" y2="757.0259" gradientTransform="matrix(1.0039 0 0 1.0039 2.9339 -566.5474)">
	<stop  offset="0" style="stop-color:#FFFFFF,stop-opacity:0"/>
	<stop  offset="1" style="stop-color:#FFFFFF"/>
</linearGradient>
<path class="st4" d="M153.3,222.8c-4-4.3-9.6-6.9-15.9-6.9H96.5c-12,0-21.8,9.7-21.8,21.8l0,0c0,6.3,2.7,11.9,6.9,15.9l53.6,53.6
	c4,4.3,9.6,6.9,15.9,6.9h40.8c12,0,21.8-9.7,21.8-21.8l0,0c0-6.3-2.7-11.9-6.9-15.9L153.3,222.8z"/>
<linearGradient id="SVGID_6_" gradientUnits="userSpaceOnUse" x1="298.2829" y1="847.2723" x2="208.0328" y2="757.0222" gradientTransform="matrix(1.0039 0 0 1.0039 2.9339 -566.5474)">
	<stop  offset="0" style="stop-color:#FFFFFF,stop-opacity:0"/>
	<stop  offset="1" style="stop-color:#FFFFFF"/>
</linearGradient>
<path class="st5" d="M292.3,222.8c-4-4.3-9.6-6.9-15.9-6.9h-40.8c-12,0-21.8,9.7-21.8,21.8l0,0c0,6.3,2.7,11.9,6.9,15.9l53.6,53.6
	c4,4.3,9.6,6.9,15.9,6.9h40.8c12,0,21.8-9.7,21.8-21.8l0,0c0-6.3-2.7-11.9-6.9-15.9L292.3,222.8z"/>
<g>
	<linearGradient id="SVGID_7_" gradientUnits="userSpaceOnUse" x1="116.963" y1="259.415" x2="116.963" y2="215.883">
		<stop  offset="0" style="stop-color:#F2CDC0"/>
		<stop  offset="1" style="stop-color:#F4E7DE"/>
	</linearGradient>
	<path class="st6" d="M137.4,259.4H96.5c-12,0-21.8-9.7-21.8-21.8l0,0c0-12,9.7-21.8,21.8-21.8h40.8c12,0,21.8,9.7,21.8,21.8l0,0
		C159.2,249.7,149.4,259.4,137.4,259.4z"/>
	<linearGradient id="SVGID_8_" gradientUnits="userSpaceOnUse" x1="256" y1="259.415" x2="256" y2="215.883">
		<stop  offset="0" style="stop-color:#F2CDC0"/>
		<stop  offset="1" style="stop-color:#F4E7DE"/>
	</linearGradient>
	<path class="st7" d="M276.4,259.4h-40.8c-12,0-21.8-9.7-21.8-21.8l0,0c0-12,9.7-21.8,21.8-21.8h40.8c12,0,21.8,9.7,21.8,21.8l0,0
		C298.2,249.7,288.4,259.4,276.4,259.4z"/>
</g>
<linearGradient id="SVGID_9_" gradientUnits="userSpaceOnUse" x1="436.724" y1="847.2211" x2="346.534" y2="757.0311" gradientTransform="matrix(1.0039 0 0 1.0039 2.9339 -566.5474)">
	<stop  offset="0" style="stop-color:#FFFFFF,stop-opacity:0"/>
	<stop  offset="1" style="stop-color:#FFFFFF"/>
</linearGradient>
<path class="st8" d="M484,275.4v33.8c-3.8,3.1-8.6,4.9-13.8,4.9h-40.8c-6.3,0-11.9-2.7-15.9-6.9l-53.6-53.6c-1.6-1.5-3-3.2-4.1-5.1
	c-0.2-0.3-0.4-0.6-0.5-1c-0.2-0.3-0.3-0.7-0.5-1c-0.1-0.3-0.3-0.7-0.4-1c-0.1-0.3-0.3-0.7-0.4-1c0,0,0,0,0-0.1
	c-0.1-0.3-0.2-0.7-0.3-1c-0.1-0.4-0.2-0.7-0.3-1.1c-0.1-0.3-0.1-0.5-0.2-0.8c-0.1-0.5-0.2-1-0.2-1.6c-0.1-0.7-0.1-1.5-0.1-2.2
	c0-6,2.4-11.4,6.4-15.4c3.9-3.9,9.4-6.4,15.4-6.4h40.8c0.8,0,1.5,0,2.2,0.1c0.5,0.1,1,0.1,1.5,0.2c0.3,0,0.5,0.1,0.8,0.2
	c0.4,0.1,0.7,0.2,1.1,0.3c0.4,0.1,0.7,0.2,1,0.3c0,0,0,0,0.1,0c0.3,0.1,0.7,0.2,1,0.4c0.4,0.1,0.7,0.3,1,0.4
	c2.7,1.2,5.1,2.9,7.1,5.1l0.4,0.4L484,275.4z"/>
<linearGradient id="SVGID_10_" gradientUnits="userSpaceOnUse" x1="395.037" y1="259.415" x2="395.037" y2="215.883">
	<stop  offset="0" style="stop-color:#F2CDC0"/>
	<stop  offset="1" style="stop-color:#F4E7DE"/>
</linearGradient>
<path class="st9" d="M415.5,259.4h-40.8c-12,0-21.8-9.7-21.8-21.8l0,0c0-12,9.7-21.8,21.8-21.8h40.8c12,0,21.8,9.7,21.8,21.8l0,0
	C437.2,249.7,427.5,259.4,415.5,259.4z"/>
<linearGradient id="SVGID_11_" gradientUnits="userSpaceOnUse" x1="159.7893" y1="922.6759" x2="69.5393" y2="832.4258" gradientTransform="matrix(1.0039 0 0 1.0039 2.9339 -566.5474)">
	<stop  offset="0" style="stop-color:#FFFFFF,stop-opacity:0"/>
	<stop  offset="1" style="stop-color:#FFFFFF"/>
</linearGradient>
<path class="st10" d="M153.3,298.5c-4-4.3-9.6-6.9-15.9-6.9H96.5c-12,0-21.8,9.7-21.8,21.8l0,0c0,6.3,2.7,11.9,6.9,15.9l53.6,53.6
	c4,4.3,9.6,6.9,15.9,6.9h40.8c12,0,21.8-9.7,21.8-21.8l0,0c0-6.3-2.7-11.9-6.9-15.9L153.3,298.5z"/>
<linearGradient id="SVGID_12_" gradientUnits="userSpaceOnUse" x1="298.283" y1="922.6722" x2="208.033" y2="832.4222" gradientTransform="matrix(1.0039 0 0 1.0039 2.9339 -566.5474)">
	<stop  offset="0" style="stop-color:#FFFFFF,stop-opacity:0"/>
	<stop  offset="1" style="stop-color:#FFFFFF"/>
</linearGradient>
<path class="st11" d="M292.3,298.5c-4-4.3-9.6-6.9-15.9-6.9h-40.8c-12,0-21.8,9.7-21.8,21.8l0,0c0,6.3,2.7,11.9,6.9,15.9l53.6,53.6
	c4,4.3,9.6,6.9,15.9,6.9h40.8c12,0,21.8-9.7,21.8-21.8l0,0c0-6.3-2.7-11.9-6.9-15.9L292.3,298.5z"/>
<g>
	<linearGradient id="SVGID_13_" gradientUnits="userSpaceOnUse" x1="116.963" y1="335.109" x2="116.963" y2="291.577">
		<stop  offset="0" style="stop-color:#F2CDC0"/>
		<stop  offset="1" style="stop-color:#F4E7DE"/>
	</linearGradient>
	<path class="st12" d="M137.4,335.1H96.5c-12,0-21.8-9.7-21.8-21.8l0,0c0-12,9.7-21.8,21.8-21.8h40.8c12,0,21.8,9.7,21.8,21.8l0,0
		C159.2,325.4,149.4,335.1,137.4,335.1z"/>
	<linearGradient id="SVGID_14_" gradientUnits="userSpaceOnUse" x1="256" y1="335.109" x2="256" y2="291.577">
		<stop  offset="0" style="stop-color:#F2CDC0"/>
		<stop  offset="1" style="stop-color:#F4E7DE"/>
	</linearGradient>
	<path class="st13" d="M276.4,335.1h-40.8c-12,0-21.8-9.7-21.8-21.8l0,0c0-12,9.7-21.8,21.8-21.8h40.8c12,0,21.8,9.7,21.8,21.8l0,0
		C298.2,325.4,288.4,335.1,276.4,335.1z"/>
</g>
<linearGradient id="SVGID_15_" gradientUnits="userSpaceOnUse" x1="436.7227" y1="922.6224" x2="346.5327" y2="832.4324" gradientTransform="matrix(1.0039 0 0 1.0039 2.9339 -566.5474)">
	<stop  offset="0" style="stop-color:#FFFFFF,stop-opacity:0"/>
	<stop  offset="1" style="stop-color:#FFFFFF"/>
</linearGradient>
<path class="st14" d="M484,351.1v33.8c-3.8,3.1-8.6,4.9-13.8,4.9h-40.8c-6.3,0-11.9-2.7-15.9-6.9l-53.3-53.3l-0.3-0.3
	c-2.1-2-3.9-4.4-5.1-7.1c-0.1-0.3-0.3-0.7-0.4-1c-0.1-0.3-0.3-0.7-0.4-1s-0.2-0.7-0.3-1.1c-0.1-0.4-0.2-0.7-0.3-1.1
	c-0.1-0.3-0.1-0.6-0.2-1c-0.1-0.5-0.1-0.9-0.2-1.4c-0.1-0.7-0.1-1.5-0.1-2.2c0-6,2.4-11.5,6.4-15.4c3.9-3.9,9.4-6.4,15.4-6.4h40.8
	c0.8,0,1.5,0,2.2,0.1c0.5,0.1,1,0.1,1.5,0.2c0.3,0,0.5,0.1,0.8,0.2c0.4,0.1,0.7,0.2,1.1,0.3c0.4,0.1,0.7,0.2,1,0.3c0,0,0,0,0.1,0
	c0.3,0.1,0.7,0.2,1,0.4c0.4,0.1,0.7,0.3,1,0.4c2.7,1.2,5.1,2.9,7.1,5.1l0.4,0.4l15.2,15.2L484,351.1z"/>
<linearGradient id="SVGID_16_" gradientUnits="userSpaceOnUse" x1="395.037" y1="335.109" x2="395.037" y2="291.577">
	<stop  offset="0" style="stop-color:#F2CDC0"/>
	<stop  offset="1" style="stop-color:#F4E7DE"/>
</linearGradient>
<path class="st15" d="M415.5,335.1h-40.8c-12,0-21.8-9.7-21.8-21.8l0,0c0-12,9.7-21.8,21.8-21.8h40.8c12,0,21.8,9.7,21.8,21.8l0,0
	C437.2,325.4,427.5,335.1,415.5,335.1z"/>
<linearGradient id="SVGID_17_" gradientUnits="userSpaceOnUse" x1="159.7894" y1="998.0759" x2="69.5393" y2="907.8258" gradientTransform="matrix(1.0039 0 0 1.0039 2.9339 -566.5474)">
	<stop  offset="0" style="stop-color:#FFFFFF,stop-opacity:0"/>
	<stop  offset="1" style="stop-color:#FFFFFF"/>
</linearGradient>
<path class="st16" d="M153.3,374.2c-4-4.3-9.6-6.9-15.9-6.9H96.5c-12,0-21.8,9.7-21.8,21.8l0,0c0,6.3,2.7,11.9,6.9,15.9l53.6,53.6
	c4,4.3,9.6,6.9,15.9,6.9h40.8c12,0,21.8-9.7,21.8-21.8l0,0c0-6.3-2.7-11.9-6.9-15.9L153.3,374.2z"/>
<linearGradient id="SVGID_18_" gradientUnits="userSpaceOnUse" x1="298.283" y1="998.0721" x2="208.033" y2="907.8222" gradientTransform="matrix(1.0039 0 0 1.0039 2.9339 -566.5474)">
	<stop  offset="0" style="stop-color:#FFFFFF,stop-opacity:0"/>
	<stop  offset="1" style="stop-color:#FFFFFF"/>
</linearGradient>
<path class="st17" d="M292.3,374.2c-4-4.3-9.6-6.9-15.9-6.9h-40.8c-12,0-21.8,9.7-21.8,21.8l0,0c0,6.3,2.7,11.9,6.9,15.9l53.6,53.6
	c4,4.3,9.6,6.9,15.9,6.9h40.8c12,0,21.8-9.7,21.8-21.8l0,0c0-6.3-2.7-11.9-6.9-15.9L292.3,374.2z"/>
<g>
	<linearGradient id="SVGID_19_" gradientUnits="userSpaceOnUse" x1="116.963" y1="410.803" x2="116.963" y2="367.271">
		<stop  offset="0" style="stop-color:#F2CDC0"/>
		<stop  offset="1" style="stop-color:#F4E7DE"/>
	</linearGradient>
	<path class="st18" d="M137.4,410.8H96.5c-12,0-21.8-9.7-21.8-21.8l0,0c0-12,9.7-21.8,21.8-21.8h40.8c12,0,21.8,9.7,21.8,21.8l0,0
		C159.2,401.1,149.4,410.8,137.4,410.8z"/>
	<linearGradient id="SVGID_20_" gradientUnits="userSpaceOnUse" x1="256" y1="410.803" x2="256" y2="367.271">
		<stop  offset="0" style="stop-color:#F2CDC0"/>
		<stop  offset="1" style="stop-color:#F4E7DE"/>
	</linearGradient>
	<path class="st19" d="M276.4,410.8h-40.8c-12,0-21.8-9.7-21.8-21.8l0,0c0-12,9.7-21.8,21.8-21.8h40.8c12,0,21.8,9.7,21.8,21.8l0,0
		C298.2,401.1,288.4,410.8,276.4,410.8z"/>
</g>
<linearGradient id="SVGID_21_" gradientUnits="userSpaceOnUse" x1="436.6193" y1="997.9159" x2="346.5593" y2="907.8559" gradientTransform="matrix(1.0039 0 0 1.0039 2.9339 -566.5474)">
	<stop  offset="0" style="stop-color:#FFFFFF,stop-opacity:0"/>
	<stop  offset="1" style="stop-color:#FFFFFF"/>
</linearGradient>
<path class="st20" d="M484,426.8v22c0,4.4-0.4,8.7-1.3,12.8v0c-3.5,2.5-7.9,3.9-12.5,3.9h-40.8c-6.3,0-11.9-2.7-15.9-6.9l-53.6-53.6
	c-1.6-1.5-3-3.2-4.1-5.1c-0.2-0.3-0.4-0.6-0.5-1c-0.2-0.3-0.3-0.7-0.5-1c-0.1-0.3-0.3-0.7-0.4-1c-0.1-0.3-0.3-0.7-0.4-1
	s-0.2-0.7-0.3-1.1c-0.1-0.4-0.2-0.7-0.3-1.1c-0.1-0.3-0.1-0.5-0.2-0.8c-0.1-0.5-0.2-1-0.2-1.5c-0.1-0.7-0.1-1.5-0.1-2.2
	c0-6,2.4-11.5,6.4-15.4c3.9-3.9,9.4-6.4,15.4-6.4h40.8c0.8,0,1.5,0,2.2,0.1c0.5,0.1,1,0.1,1.5,0.2c0.3,0,0.5,0.1,0.8,0.2
	c0.4,0.1,0.7,0.2,1.1,0.3c0.4,0.1,0.7,0.2,1,0.3c0,0,0,0,0.1,0c0.3,0.1,0.7,0.2,1,0.4c0.4,0.1,0.7,0.3,1,0.4
	c2.7,1.2,5.1,2.9,7.1,5.1l0.4,0.4l15.2,15.2L484,426.8z"/>
<linearGradient id="SVGID_22_" gradientUnits="userSpaceOnUse" x1="395.037" y1="410.803" x2="395.037" y2="367.271">
	<stop  offset="0" style="stop-color:#F2CDC0"/>
	<stop  offset="1" style="stop-color:#F4E7DE"/>
</linearGradient>
<path class="st21" d="M415.5,410.8h-40.8c-12,0-21.8-9.7-21.8-21.8l0,0c0-12,9.7-21.8,21.8-21.8h40.8c12,0,21.8,9.7,21.8,21.8l0,0
	C437.2,401.1,427.5,410.8,415.5,410.8z"/>
<linearGradient id="SVGID_23_" gradientUnits="userSpaceOnUse" x1="153.77" y1="1067.4551" x2="71.09" y2="984.7751" gradientTransform="matrix(1.0039 0 0 1.0039 2.9339 -566.5474)">
	<stop  offset="0" style="stop-color:#FFFFFF,stop-opacity:0"/>
	<stop  offset="1" style="stop-color:#FFFFFF"/>
</linearGradient>
<path class="st22" d="M212.5,512h-99.4l-31-31l-0.3-0.3c-2.1-2-3.9-4.4-5.1-7.1c-0.1-0.3-0.3-0.7-0.4-1c-0.1-0.3-0.3-0.7-0.4-1
	s-0.2-0.7-0.3-1.1c-0.1-0.4-0.2-0.7-0.3-1.1c-0.1-0.3-0.1-0.6-0.2-1c-0.1-0.5-0.1-0.9-0.2-1.4c-0.1-0.7-0.1-1.5-0.1-2.2
	c0-6,2.4-11.5,6.4-15.4c3.9-3.9,9.4-6.4,15.4-6.4h40.8c0.8,0,1.5,0,2.2,0.1c0.5,0,0.9,0.1,1.4,0.2c0.3,0,0.6,0.1,1,0.2
	c0.4,0.1,0.7,0.2,1.1,0.3c0.4,0.1,0.7,0.2,1.1,0.3c0,0,0,0,0.1,0c0.3,0.1,0.7,0.2,1,0.4c0.3,0.1,0.7,0.3,1,0.4
	c0.3,0.1,0.7,0.3,1,0.5c0.3,0.2,0.6,0.3,1,0.5c1.9,1.1,3.6,2.5,5.1,4.1l53.6,53.6c2.1,2,3.9,4.4,5.1,7.1
	C212.2,511.1,212.4,511.5,212.5,512z"/>
<linearGradient id="SVGID_24_" gradientUnits="userSpaceOnUse" x1="292.2609" y1="1067.4542" x2="209.5809" y2="984.7742" gradientTransform="matrix(1.0039 0 0 1.0039 2.9339 -566.5474)">
	<stop  offset="0" style="stop-color:#FFFFFF,stop-opacity:0"/>
	<stop  offset="1" style="stop-color:#FFFFFF"/>
</linearGradient>
<path class="st23" d="M351.6,512h-99.4L221,480.9c0,0,0,0-0.1-0.1l-0.2-0.2c-0.8-0.7-1.5-1.5-2.2-2.4c-0.2-0.3-0.4-0.6-0.7-0.9
	c-0.2-0.3-0.4-0.6-0.6-0.9c-0.2-0.3-0.4-0.6-0.6-0.9c-0.4-0.6-0.7-1.3-1-2c-0.1-0.3-0.3-0.7-0.4-1c-0.1-0.3-0.3-0.7-0.4-1
	c-0.1-0.4-0.2-0.7-0.3-1.1c-0.1-0.4-0.2-0.7-0.3-1.1c-0.1-0.3-0.1-0.6-0.2-1c-0.1-0.5-0.1-0.9-0.2-1.4c-0.1-0.7-0.1-1.5-0.1-2.2
	c0-6,2.4-11.5,6.4-15.4c3.9-3.9,9.4-6.4,15.4-6.4h40.8c0.8,0,1.5,0,2.2,0.1c0.5,0.1,1,0.1,1.5,0.2c0.3,0,0.5,0.1,0.8,0.2
	c0.4,0.1,0.7,0.2,1.1,0.3c0.4,0.1,0.7,0.2,1.1,0.3c0.4,0.1,0.7,0.2,1,0.4c0.4,0.1,0.7,0.3,1,0.4c0.3,0.1,0.7,0.3,1,0.5
	c0.3,0.2,0.6,0.3,1,0.5c1.9,1.1,3.6,2.5,5.1,4.1l53.6,53.6c2.1,2,3.9,4.4,5.1,7.1C351.2,511.1,351.4,511.5,351.6,512z"/>
<g>
	<g>
		<linearGradient id="SVGID_25_" gradientUnits="userSpaceOnUse" x1="116.963" y1="486.496" x2="116.963" y2="442.964">
			<stop  offset="0" style="stop-color:#F2CDC0"/>
			<stop  offset="1" style="stop-color:#F4E7DE"/>
		</linearGradient>
		<path class="st24" d="M137.4,486.5H96.5c-12,0-21.8-9.7-21.8-21.8l0,0c0-12,9.7-21.8,21.8-21.8h40.8c12,0,21.8,9.7,21.8,21.8l0,0
			C159.2,476.8,149.4,486.5,137.4,486.5z"/>
		<linearGradient id="SVGID_26_" gradientUnits="userSpaceOnUse" x1="256" y1="486.496" x2="256" y2="442.964">
			<stop  offset="0" style="stop-color:#F2CDC0"/>
			<stop  offset="1" style="stop-color:#F4E7DE"/>
		</linearGradient>
		<path class="st25" d="M276.4,486.5h-40.8c-12,0-21.8-9.7-21.8-21.8l0,0c0-12,9.7-21.8,21.8-21.8h40.8c12,0,21.8,9.7,21.8,21.8l0,0
			C298.2,476.8,288.4,486.5,276.4,486.5z"/>
	</g>
</g>
<linearGradient id="SVGID_27_" gradientUnits="userSpaceOnUse" x1="415.9623" y1="1052.6628" x2="351.9023" y2="988.5928" gradientTransform="matrix(1.0039 0 0 1.0039 2.9339 -566.5474)">
	<stop  offset="0" style="stop-color:#FFFFFF,stop-opacity:0"/>
	<stop  offset="1" style="stop-color:#FFFFFF"/>
</linearGradient>
<path class="st26" d="M469.9,488.5c-11.6,14.4-29.3,23.5-49.2,23.5h-29.6l-31.4-31.4c-2.1-2-3.9-4.4-5.1-7.1c-0.1-0.3-0.3-0.7-0.4-1
	c-0.1-0.3-0.3-0.7-0.4-1s-0.2-0.7-0.3-1.1c-0.1-0.4-0.2-0.7-0.3-1.1c-0.1-0.3-0.1-0.6-0.2-1c-0.1-0.5-0.1-0.9-0.2-1.4
	c-0.1-0.7-0.1-1.5-0.1-2.2c0-6,2.4-11.5,6.4-15.4c3.9-3.9,9.4-6.4,15.4-6.4h40.8c0.8,0,1.5,0,2.2,0.1c0.5,0.1,1,0.1,1.5,0.2
	c0.3,0,0.5,0.1,0.8,0.2c0.4,0.1,0.7,0.2,1.1,0.3c0.4,0.1,0.7,0.2,1,0.3c0,0,0,0,0.1,0c0.3,0.1,0.7,0.2,1,0.4c0.4,0.1,0.7,0.3,1,0.4
	c2.7,1.2,5.1,2.9,7.1,5.1l0.4,0.4l15.2,15.2L469.9,488.5z"/>
<linearGradient id="SVGID_28_" gradientUnits="userSpaceOnUse" x1="390.5798" y1="1032.3275" x2="390.5798" y2="1057.3375" gradientTransform="matrix(1.0039 0 0 1.0039 2.9339 -566.5474)">
	<stop  offset="0" style="stop-color:#14123B"/>
	<stop  offset="0.6311" style="stop-color:#0B0B1E"/>
</linearGradient>
<path class="st27" d="M415.5,486.5h-40.8c-12,0-21.8-9.7-21.8-21.8l0,0c0-12,9.7-21.8,21.8-21.8h40.8c12,0,21.8,9.7,21.8,21.8l0,0
	C437.2,476.8,427.5,486.5,415.5,486.5z"/>
<g>
	<linearGradient id="SVGID_29_" gradientUnits="userSpaceOnUse" x1="108.2085" y1="88.7083" x2="201.0557" y2="88.7083">
		<stop  offset="0" style="stop-color:#14123B"/>
		<stop  offset="0.6311" style="stop-color:#0B0B1E"/>
	</linearGradient>
	<path class="st28" d="M140.7,101.7c-2.3,0.4-4.1,0.9-5.6,1.5c-1.5,0.7-2.7,1.5-3.5,2.5c-0.8,1-1.4,2.3-1.7,3.8l-0.3,2.4h64.8
		l-2.8,15.4h-83.3l3.1-17.7c1.4-7.7,4.6-13.5,9.5-17.2c4.9-3.7,11.7-5.9,20.3-6.5l27.7-2c2-0.1,3.9-0.3,5.6-0.6
		c1.7-0.2,3.3-0.7,4.6-1.3c1.3-0.7,2.4-1.7,3.1-3c0.7-1.4,1.1-3.3,1.1-5.7c0-1.6-0.3-3-0.8-4c-0.5-1-1.4-1.8-2.5-2.4
		c-1.2-0.6-2.7-0.9-4.7-1.2c-2-0.2-4.4-0.3-7.4-0.3h-12.2c-3.9,0-7.1,0.2-9.5,0.6c-2.4,0.4-4.3,1.1-5.6,2.2c-1.4,1-2.4,2.4-3,4.1
		c-0.7,1.7-1.2,3.9-1.7,6.5h-18.5c0.7-4.1,1.7-7.8,2.9-11.3c1.2-3.5,3.1-6.5,5.6-9.1c2.5-2.6,5.8-4.6,9.9-6.1
		c4.1-1.5,9.4-2.2,15.8-2.2h23.9c8.3,0,14.6,1.7,19,5.1c4.4,3.4,6.6,8.9,6.6,16.3c0,4-0.4,7.6-1.2,10.8c-0.8,3.2-2.3,6-4.5,8.4
		c-2.3,2.3-5.5,4.2-9.7,5.7c-4.2,1.5-9.7,2.4-16.6,2.9l-20.5,1.4C145.6,101,142.9,101.3,140.7,101.7z"/>
	<linearGradient id="SVGID_30_" gradientUnits="userSpaceOnUse" x1="236.3564" y1="91.9729" x2="289.1426" y2="91.9729">
		<stop  offset="0" style="stop-color:#14123B"/>
		<stop  offset="0.6311" style="stop-color:#0B0B1E"/>
	</linearGradient>
	<path class="st29" d="M236.4,137.2l40.5-90.4h12.3l-40.5,90.4H236.4z"/>
	<linearGradient id="SVGID_31_" gradientUnits="userSpaceOnUse" x1="314.1523" y1="88.7083" x2="407" y2="88.7083">
		<stop  offset="0" style="stop-color:#14123B"/>
		<stop  offset="0.6311" style="stop-color:#0B0B1E"/>
	</linearGradient>
	<path class="st30" d="M346.6,101.7c-2.3,0.4-4.1,0.9-5.6,1.5c-1.5,0.7-2.7,1.5-3.5,2.5c-0.8,1-1.4,2.3-1.7,3.8l-0.3,2.4h64.8
		l-2.8,15.4h-83.3l3.1-17.7c1.4-7.7,4.6-13.5,9.5-17.2c4.9-3.7,11.7-5.9,20.3-6.5l27.7-2c2-0.1,3.9-0.3,5.6-0.6
		c1.7-0.2,3.3-0.7,4.6-1.3s2.4-1.7,3.1-3c0.7-1.4,1.1-3.3,1.1-5.7c0-1.6-0.3-3-0.8-4c-0.5-1-1.4-1.8-2.5-2.4
		c-1.2-0.6-2.7-0.9-4.7-1.2c-2-0.2-4.4-0.3-7.4-0.3h-12.2c-3.9,0-7.1,0.2-9.5,0.6c-2.4,0.4-4.3,1.1-5.6,2.2c-1.4,1-2.4,2.4-3,4.1
		c-0.7,1.7-1.2,3.9-1.7,6.5h-18.5c0.7-4.1,1.7-7.8,2.9-11.3c1.2-3.5,3.1-6.5,5.6-9.1c2.5-2.6,5.8-4.6,9.9-6.1
		c4.1-1.5,9.4-2.2,15.8-2.2h23.9c8.3,0,14.6,1.7,19,5.1s6.6,8.9,6.6,16.3c0,4-0.4,7.6-1.2,10.8c-0.8,3.2-2.3,6-4.5,8.4
		c-2.3,2.3-5.5,4.2-9.7,5.7c-4.2,1.5-9.7,2.4-16.6,2.9l-20.5,1.4C351.5,101,348.9,101.3,346.6,101.7z"/>
</g>
<text transform="matrix(1 0 0 1 556.3324 127.3301)" style="fill:#14123B, font-family:'MicroExtendFLF-BoldItalic', font-size:110.6642px, letter-spacing:-11,">2 / 2</text>
</svg>
